# AST/ASF file generated using VICON BodyLanguage
# -----------------------------------------------
:version 1.10
:name VICON
:units
  mass 1.0
  length 0.45
  angle deg
:documentation
   .ast/.asf automatically generated from VICON data using
   VICON BodyBuilder and BodyLanguage model FoxedUp or BRILLIANT.MOD
:root
   order TX TY TZ RX RY RZ
   axis XYZ
   position 0 0 0  
   orientation 0 0 0 
:bonedata
  begin
     id 1 
     name lhipjoint
     direction 0.635376 -0.686425 0.353719 
     length 2.47244 
     axis 0 0 0  XYZ
  end
  begin
     id 2 
     name lfemur
     direction 0.34202 -0.939693 0  
     length 7.25268  
     axis 0 0 20  XYZ
    dof rx ry rz
    limits (-160.0 20.0)
           (-70.0 70.0)
           (-60.0 70.0)
  end
  begin
     id 3 
     name ltibia
     direction 0.34202 -0.939693 0   
     length 7.6767   
     axis 0 0 20   XYZ
    dof rx
    limits (-10.0 170.0)
  end
  begin
     id 4 
     name lfoot
     direction 0.0803374 -0.220725 0.972022   
     length 2.22945   
     axis -90 7.62852e-016 20   XYZ
    dof rx rz
    limits (-45.0 90.0)
           (-70.0 20.0)
  end
  begin
     id 5 
     name ltoes
     direction 1.53579e-011 -4.21994e-011 1   
     length 1.11848   
     axis -90 7.62852e-016 20   XYZ
    dof rx
    limits (-90.0 20.0)
  end
  begin
     id 6 
     name rhipjoint
     direction -0.664428 -0.664335 0.342336   
     length 2.55466  
     axis 0 0 0  XYZ 
  end
  begin
     id 7 
     name rfemur
     direction -0.34202 -0.939693 0   
     length 6.83172   
     axis 0 0 -20   XYZ
    dof rx ry rz
    limits (-160.0 20.0)
           (-70.0 70.0)
           (-70.0 60.0)
  end
  begin
     id 8 
     name rtibia
     direction -0.34202 -0.939693 0   
     length 7.62692   
     axis 0 0 -20   XYZ
    dof rx
    limits (-10.0 170.0)
 end
 begin
     id 9 
     name rfoot
     direction -0.0949276 -0.260811 0.960711   
     length 2.19684  
     axis -90 -7.62852e-016 -20   XYZ
    dof rx rz
    limits (-45.0 90.0)
           (-20.0 70.0)
  end
  begin
     id 10 
     name rtoes
     direction -1.53543e-011 -4.2183e-011 1   
     length 1.09848   
     axis -90 -7.62852e-016 -20   XYZ
    dof rx
    limits (-90.0 20.0)
  end
  begin
     id 11 
     name lowerback
     direction 0.0118782 0.999815 -0.0151555   
     length 2.15772   
     axis 0 0 0   XYZ
    dof rx ry rz
    limits (-20.0 45.0)
           (-30.0 30.0)
           (-30.0 30.0)
  end
  begin
     id 12 
     name upperback
     direction 0.00130825 0.999065 0.0432113   
     length 2.14863   
     axis 0 0 0   XYZ
    dof rx ry rz
    limits (-20.0 45.0)
           (-30.0 30.0)
           (-30.0 30.0)
  end
  begin
     id 13 
     name thorax
     direction -0.00347005 0.998773 0.0494011   
     length 2.14936   
     axis 0 0 0   XYZ
    dof rx ry rz
    limits (-20.0 45.0)
           (-30.0 30.0)
           (-30.0 30.0)
  end
  begin
     id 14 
     name lowerneck
     direction -0.0262159 0.99424 0.103921   
     length 1.69373   
     axis 0 0 0   XYZ
    dof rx ry rz
    limits (-20.0 45.0)
           (-30.0 30.0)
           (-30.0 30.0)
  end
  begin
     id 15 
     name upperneck
     direction 0.0353511 0.977394 -0.20845   
     length 1.70857   
     axis 0 0 0   XYZ
    dof rx ry rz
    limits (-20.0 45.0)
           (-30.0 30.0)
           (-30.0 30.0)
  end
  begin
     id 16
     name head
     direction 0.0139214 0.996594 -0.0812836  
     length 1.72777  
     axis 0 0 0   XYZ
    dof rx ry rz
    limits (-20.0 45.0)
           (-30.0 30.0)
           (-30.0 30.0)
  end
  begin
     id 17 
     name lclavicle
     direction 0.841247 0.537205 -0.0609508  
     length 3.55371  
     axis 0 0 0   XYZ
    dof ry rz
    limits (-20.0 10.0)
           (0.0 20.0)
  end
  begin
     id 18 
     name lhumerus
     direction 1 -4.48964e-011 1.60116e-018   
     length 4.91377   
     axis -180 -30 -90   XYZ
    dof rx ry rz
    limits (-60.0 90.0)
           (-90.0 90.0)
           (-90.0 90.0)
  end
  begin
     id 19
     name lradius
     direction 1 -4.48989e-011 -8.93847e-027   
     length 3.00291   
     axis -180 -30 -90   XYZ
    dof rx
    limits (-10.0 170.0)
  end
  begin
     id 20
     name lwrist
     direction 1 -4.48932e-011 -7.31504e-027   
     length 1.50145   
     axis 5.74121e-015 90 90   XYZ
    dof ry
    limits (-180.0 0.0)
 end
  begin
     id 21 
     name lhand
     direction 1 -4.48971e-011 -1.46301e-026   
     length 0.450922   
     axis 9.33524e-015 90 90   XYZ
    dof rx rz
    limits (-90.0 90.0)
           (-45.0 45.0)
  end
  begin
     id 22 
     name lfingers
     direction 1 -4.49039e-011 -2.92602e-026   
     length 0.363545   
     axis 1.86705e-014 90 90   XYZ
    dof rx
    limits (0.0 90.0)
  end
  begin
     id 23
     name lthumb
     direction 0.707107 -6.34941e-011 0.707107   
     length 0.52198   
     axis -90 45 2.85299e-015   XYZ
    dof rx rz
    limits (-45.0 45.0)
           (-45.0 45.0)
  end
  begin
     id 24 
     name rclavicle
     direction -0.825079 0.56158 -0.0622297   
     length 3.39909  
     axis 0 0 0   XYZ 
    dof ry rz
    limits (-10.0 20.0)
           (-20.0 0.0)
  end
  begin
     id 25 
     name rhumerus
     direction -1 -4.48965e-011 1.61691e-027  
     length 4.86725   
     axis -180 30 90   XYZ
    dof rx ry rz
    limits (-90.0 60.0)
           (-90.0 90.0)
           (-90.0 90.0)
  end
  begin
     id 26 
     name rradius
     direction -1 -4.48964e-011 -2.25776e-027   
     length 3.17144   
     axis -180 30 90   XYZ
    dof rx
    limits (-10.0 170.0)
  end
  begin
     id 27 
     name rwrist
     direction -1 -4.48961e-011 -7.31504e-027   
     length 1.58572   
     axis 5.74121e-015 -90 -90   XYZ
    dof ry
    limits (-180.0 0.0)
  end
  begin
     id 28
     name rhand
     direction -1 -4.49013e-011 -1.46301e-026   
     length 0.419368   
     axis 9.33524e-015 -90 -90   XYZ
    dof rx rz
    limits (-90.0 90.0)
           (-45.0 45.0)
  end
  begin
     id 29
     name rfingers
     direction -1 -4.489e-011 -2.92602e-026   
     length 0.338105   
     axis 1.86705e-014 -90 -90   XYZ
    dof rx
    limits (0.0 90.0)
  end
  begin
     id 30
     name rthumb
     direction -0.707107 -6.35022e-011 0.707107   
     length 0.485453   
     axis -90 -45 -2.85299e-015   XYZ
    dof rx rz
    limits (-45.0 45.0)
           (-45.0 45.0)
  end
:hierarchy
  begin
    root lhipjoint rhipjoint lowerback
    lhipjoint lfemur
    lfemur ltibia
    ltibia lfoot
    lfoot ltoes
    rhipjoint rfemur
    rfemur rtibia
    rtibia rfoot
    rfoot rtoes
    lowerback upperback
    upperback thorax
    thorax lowerneck lclavicle rclavicle
    lowerneck upperneck
    upperneck head
    lclavicle lhumerus
    lhumerus lradius
    lradius lwrist
    lwrist lhand lthumb
    lhand lfingers
    rclavicle rhumerus
    rhumerus rradius
    rradius rwrist
    rwrist rhand rthumb
    rhand rfingers
  end

#!OML:ASF H:\Swim 2\Project 1\Capture day 1\Session 1\male.ASF
:FULLY-SPECIFIED
:DEGREES
145
root 7.7432 9.90647 12.4157 98.4561 -1.92735 2.32611
lowerback -4.74487 -1.11613 -6.20683
upperback -3.52428 -1.27302 5.22554
thorax -0.755737 -0.490986 8.96532
lowerneck -23.4422 -1.98767 -5.35367
upperneck 36.135 -0.0966259 -1.29718
head 17.205 -0.952732 0.340686
rclavicle -1.46107e-014 2.584e-014
rhumerus 44.7004 -32.2002 6.53512
rradius 44.6039
rwrist 10.7887
rhand -28.6201 7.12147
rfingers 7.12502
rthumb -1.9848 -22.849
lclavicle -1.46107e-014 2.584e-014
lhumerus 43.6706 39.6667 21.2092
lradius 24.1751
lwrist 8.43068
lhand -37.3502 -3.31946
lfingers 7.12502
lthumb -10.4125 26.4027
rfemur -32.3531 -4.51715 23.1146
rtibia 47.7865
rfoot 17.7525 -6.0471
rtoes 21.3096
lfemur -33.526 -0.503333 -27.2092
ltibia 49.9026
lfoot 10.7415 -0.687108
ltoes 8.8735
146
root 7.7409 9.92305 12.4147 98.086 -1.86544 2.01532
lowerback -4.47809 -0.906177 -6.70892
upperback -3.63313 -0.979708 5.49994
thorax -1.07232 -0.309741 9.58363
lowerneck -23.7996 -2.26456 -5.24018
upperneck 37.0599 -0.410722 -1.52048
head 17.8054 -1.10771 0.141886
rclavicle -3.03147e-015 4.42451e-014
rhumerus 43.8635 -31.6208 5.80814
rradius 45.0962
rwrist 8.96837
rhand -28.2946 5.39558
rfingers 7.12502
rthumb -1.67048 -24.5776
lclavicle -3.03147e-015 4.42451e-014
lhumerus 41.3046 38.1811 20.6357
lradius 25.3824
lwrist 11.6007
lhand -37.2209 -2.70765
lfingers 7.12502
lthumb -10.2878 27.0207
rfemur -31.8332 -4.56092 23.1834
rtibia 49.2967
rfoot 18.1214 -5.82324
rtoes 21.1613
lfemur -33.0239 0.0834331 -27.2027
ltibia 51.5021
lfoot 10.9372 -1.22903
ltoes 9.40604
147
root 7.73784 9.93953 12.4171 97.7185 -1.81061 1.70463
lowerback -4.25684 -0.611743 -7.46356
upperback -3.82706 -0.560779 5.86973
thorax -1.49259 -0.0443044 10.4673
lowerneck -23.9189 -2.65582 -5.18154
upperneck 38.2358 -0.867644 -1.78361
head 18.5155 -1.32633 -0.106632
rclavicle 1.59028e-015 4.09434e-014
rhumerus 42.7462 -30.8571 5.4755
rradius 45.8174
rwrist 6.36563
rhand -27.9537 3.40639
rfingers 7.12502
rthumb -1.34118 -26.5691
lclavicle 1.59028e-015 4.09434e-014
lhumerus 39.2589 36.3861 20.6892
lradius 26.8143
lwrist 14.9299
lhand -37.049 -2.04456
lfingers 7.12502
lthumb -10.1219 27.692
rfemur -31.3038 -4.54689 23.2197
rtibia 50.8175
rfoot 18.4397 -5.66032
rtoes 20.9672
lfemur -32.5004 0.641466 -27.1689
ltibia 53.0766
lfoot 11.1573 -1.66439
ltoes 9.9827
148
root 7.73519 9.95576 12.4228 97.4305 -1.77176 1.45429
lowerback -4.14691 -0.24388 -8.41584
upperback -4.12043 -0.0279683 6.29348
thorax -2.00972 0.304459 11.5423
lowerneck -23.8184 -3.16914 -5.18388
upperneck 39.5947 -1.49857 -2.04173
head 19.3169 -1.60883 -0.393754
rclavicle -1.19271e-015 -1.41758e-014
rhumerus 41.2471 -29.9142 5.60707
rradius 46.7822
rwrist 2.90095
rhand -27.6894 1.23421
rfingers 7.12502
rthumb -1.08596 -28.7428
lclavicle -1.19271e-015 -1.41758e-014
lhumerus 37.5823 34.3012 21.3742
lradius 28.5129
lwrist 18.4418
lhand -36.8754 -1.35664
lfingers 7.12502
lthumb -9.95444 28.388
rfemur -30.8662 -4.54252 23.2323
rtibia 52.3713
rfoot 18.7642 -5.62999
rtoes 20.836
lfemur -32.0521 1.10946 -27.1245
ltibia 54.6335
lfoot 11.4058 -1.97882
ltoes 10.4575
149
root 7.73379 9.97159 12.4312 97.276 -1.75188 1.30394
lowerback -4.17859 0.182955 -9.44816
upperback -4.50129 0.601005 6.69609
thorax -2.60396 0.728133 12.6558
lowerneck -23.5309 -3.78219 -5.19543
upperneck 40.9556 -2.29951 -2.29675
head 20.1151 -1.93944 -0.727958
rclavicle -1.11319e-014 -3.70733e-014
rhumerus 39.3396 -28.8584 6.11967
rradius 47.9746
rwrist -1.32853
rhand -27.5763 -0.991822
rfingers 7.12502
rthumb -0.976657 -30.9693
lclavicle -1.11319e-014 -3.70733e-014
lhumerus 36.3158 31.9956 22.6248
lradius 30.5056
lwrist 22.092
lhand -36.7425 -0.719227
lfingers 7.12502
lthumb -9.8262 29.0315
rfemur -30.5942 -4.60024 23.2319
rtibia 53.9751
rfoot 19.1659 -5.75869
rtoes 20.9953
lfemur -31.7502 1.44945 -27.0821
ltibia 56.1838
lfoot 11.6733 -2.16755
ltoes 10.7757
150
root 7.73371 9.98685 12.4422 97.26 -1.74738 1.25494
lowerback -4.32848 0.640854 -10.4149
upperback -4.92617 1.28523 7.00092
thorax -3.23203 1.19723 13.6262
lowerneck -23.2422 -4.47265 -5.1812
upperneck 42.2612 -3.26743 -2.4992
head 20.9228 -2.30163 -1.09339
rclavicle 1.98785e-014 3.77691e-015
rhumerus 37.1375 -27.8142 6.75042
rradius 49.3577
rwrist -6.11723
rhand -27.6164 -3.22088
rfingers 7.12502
rthumb -1.01545 -33.1982
lclavicle 1.98785e-014 3.77691e-015
lhumerus 35.3783 29.5668 24.1872
lradius 32.82
lwrist 25.8302
lhand -36.6766 -0.181499
lfingers 7.12502
lthumb -9.76264 29.5722
rfemur -30.4947 -4.73019 23.2284
rtibia 55.6263
rfoot 19.5657 -6.00069
rtoes 21.2384
lfemur -31.606 1.66594 -27.046
ltibia 57.7323
lfoot 11.9828 -2.24648
ltoes 11.0188
151
root 7.73489 10.0015 12.4558 97.3808 -1.75744 1.3071
lowerback -4.56245 1.07363 -11.2002
upperback -5.35354 1.94159 7.17102
thorax -3.82881 1.65301 14.3289
lowerneck -23.0406 -5.1566 -5.12927
upperneck 43.3107 -4.27249 -2.66101
head 21.6152 -2.64998 -1.46101
rclavicle 1.74931e-014 -6.01324e-014
rhumerus 34.8587 -26.8874 7.2227
rradius 50.8858
rwrist -11.2738
rhand -27.8111 -5.44442
rfingers 7.12502
rthumb -1.20344 -35.4208
lclavicle 1.74931e-014 -6.01324e-014
lhumerus 34.5989 27.1499 25.7646
lradius 35.4642
lwrist 29.5555
lhand -36.6896 0.229746
lfingers 7.12502
lthumb -9.77517 29.9829
rfemur -30.5638 -4.93697 23.2269
rtibia 57.3172
rfoot 20.0014 -6.30416
rtoes 21.711
lfemur -31.6207 1.76588 -27.0191
ltibia 59.2798
lfoot 12.3343 -2.26428
ltoes 11.2816
152
root 7.73549 10.0155 12.4728 97.5176 -1.77188 1.37429
lowerback -4.75692 1.45221 -11.7872
upperback -5.71332 2.51535 7.23777
thorax -4.35352 2.05237 14.7811
lowerneck -22.96 -5.73858 -5.06677
upperneck 43.957 -5.14844 -2.78096
head 22.0693 -2.94059 -1.7735
rclavicle -1.74931e-014 -2.52457e-014
rhumerus 32.799 -26.1671 7.27949
rradius 52.5101
rwrist -16.5866
rhand -28.0684 -7.66187
rfingers 7.12502
rthumb -1.45202 -37.6367
lclavicle -1.74931e-014 -2.52457e-014
lhumerus 33.7518 24.8808 27.1015
lradius 38.4323
lwrist 33.152
lhand -36.7698 0.523215
lfingers 7.12502
lthumb -9.85257 30.2727
rfemur -30.6557 -5.14868 23.2253
rtibia 59.0251
rfoot 20.4337 -6.62313
rtoes 22.367
lfemur -31.6489 1.85525 -26.9896
ltibia 60.8139
lfoot 12.6885 -2.2403
ltoes 11.4453
153
root 7.73553 10.0291 12.4929 97.6672 -1.79084 1.45846
lowerback -4.90919 1.73023 -12.201
upperback -5.99851 2.93961 7.25175
thorax -4.76585 2.35326 15.0579
lowerneck -22.982 -6.16183 -5.02174
upperneck 44.164 -5.77888 -2.87349
head 22.2276 -3.15194 -1.99415
rclavicle -9.54166e-015 -1.19271e-015
rhumerus 31.1582 -25.67 6.82624
rradius 54.194
rwrist -21.8544
rhand -28.3654 -9.81759
rfingers 7.12502
rthumb -1.73883 -39.7903
lclavicle -9.54166e-015 -1.19271e-015
lhumerus 32.6943 22.8381 28.1044
lradius 41.7016
lwrist 36.4878
lhand -36.9038 0.789787
lfingers 7.12502
lthumb -9.98187 30.5331
rfemur -30.7613 -5.3644 23.2239
rtibia 60.7343
rfoot 20.8458 -6.93286
rtoes 23.1797
lfemur -31.6853 1.93251 -26.9575
ltibia 62.3281
lfoot 13.0311 -2.18159
ltoes 11.3199
154
root 7.73516 10.0421 12.516 97.8272 -1.81638 1.5596
lowerback -5.03413 1.91075 -12.502
upperback -6.23 3.2209 7.24936
thorax -5.07977 2.56269 15.2435
lowerneck -23.0033 -6.43831 -5.00824
upperneck 43.9713 -6.17024 -2.94856
head 22.0803 -3.29702 -2.11854
rclavicle -1.90833e-014 -3.97569e-015
rhumerus 29.9206 -25.3156 5.98821
rradius 55.9279
rwrist -26.9109
rhand -28.6545 -11.8478
rfingers 7.12502
rthumb -2.01805 -41.818
lclavicle -1.90833e-014 -3.97569e-015
lhumerus 31.4271 20.9742 28.8296
lradius 45.2374
lwrist 39.4672
lhand -37.0641 1.09826
lfingers 7.12502
lthumb -10.1365 30.8341
rfemur -30.8776 -5.59528 23.2217
rtibia 62.4307
rfoot 21.2449 -7.20505
rtoes 24.0113
lfemur -31.7254 1.99661 -26.9252
ltibia 63.8106
lfoot 13.3555 -2.0886
ltoes 11.0115
155
root 7.73451 10.0547 12.5418 97.9993 -1.84605 1.67604
lowerback -5.14682 2.03726 -12.7477
upperback -6.43893 3.42352 7.24057
thorax -5.34548 2.72309 15.387
lowerneck -22.9769 -6.63183 -5.01344
upperneck 43.5425 -6.42358 -3.02114
head 21.7442 -3.40719 -2.18682
rclavicle 6.52014e-014 1.19072e-013
rhumerus 28.9053 -24.9917 4.98141
rradius 57.7262
rwrist -31.5662
rhand -28.8882 -13.6549
rfingers 7.12502
rthumb -2.24376 -43.6229
lclavicle 6.52014e-014 1.19072e-013
lhumerus 30.0779 19.1784 29.442
lradius 48.9961
lwrist 42.0089
lhand -37.2258 1.51889
lfingers 7.12502
lthumb -10.2925 31.247
rfemur -31.0058 -5.84781 23.2213
rtibia 64.1017
rfoot 21.6373 -7.42776
rtoes 24.7718
lfemur -31.772 2.04637 -26.8903
ltibia 65.2553
lfoot 13.6671 -1.97319
ltoes 10.5519
156
root 7.73366 10.0668 12.5699 98.1824 -1.88121 1.80436
lowerback -5.25242 2.12754 -12.9612
upperback -6.63455 3.57352 7.22767
thorax -5.5802 2.85114 15.5056
lowerneck -22.886 -6.77189 -5.04134
upperneck 42.9307 -6.59056 -3.08044
head 21.2678 -3.49714 -2.20794
rclavicle 3.49861e-014 2.5842e-014
rhumerus 28.023 -24.6262 3.90975
rradius 59.6021
rwrist -35.6231
rhand -29.0432 -15.1877
rfingers 7.12502
rthumb -2.39342 -45.154
lclavicle 3.49861e-014 2.5842e-014
lhumerus 28.7013 17.408 30.0057
lradius 52.946
lwrist 44.092
lhand -37.3728 2.09584
lfingers 7.12502
lthumb -10.4343 31.8169
rfemur -31.1449 -6.12502 23.2213
rtibia 65.7369
rfoot 22.0384 -7.58081
rtoes 25.3911
lfemur -31.8227 2.08104 -26.8549
ltibia 66.653
lfoot 13.9518 -1.85384
ltoes 9.99186
157
root 7.73275 10.0785 12.6 98.3772 -1.91998 1.94145
lowerback -5.35788 2.19596 -13.1533
upperback -6.8225 3.69223 7.21178
thorax -5.79431 2.9598 15.6077
lowerneck -22.7308 -6.88062 -5.08797
upperneck 42.1862 -6.70693 -3.13233
head 20.6996 -3.57622 -2.19849
rclavicle -6.20208e-014 -4.6118e-014
rhumerus 27.1912 -24.1413 2.86073
rradius 61.5676
rwrist -38.8755
rhand -29.128 -16.36
rfingers 7.12502
rthumb -2.47529 -46.3253
lclavicle -6.20208e-014 -4.6118e-014
lhumerus 27.356 15.6415 30.5931
lradius 57.0398
lwrist 45.7134
lhand -37.4778 2.80925
lfingers 7.12502
lthumb -10.5355 32.5252
rfemur -31.2941 -6.42675 23.2226
rtibia 67.3238
rfoot 22.4967 -7.65971
rtoes 25.9068
lfemur -31.8787 2.10059 -26.8179
ltibia 67.9966
lfoot 14.232 -1.75603
ltoes 9.51834
